<svg height="2078" width="720" xmlns="http://www.w3.org/2000/svg">
<rect height="2078" fill="#555" width="720"></rect>
<text fill="#7f7" font-family="Courier New" font-size="12" xml:space="preserve">
<tspan x="10" y="26"></tspan>
<tspan x="10" y="42">&gt; npmdoc-realm@0.0.3 test /home/travis/build/npmdoc/node-npmdoc-realm</tspan>
<tspan x="10" y="58">&gt; (set -e; export PORT=$(utility2 shServerPortRandom); utility2 test test.js)</tspan>
<tspan x="10" y="74"></tspan>
<tspan x="10" y="90"></tspan>
<tspan x="10" y="106">[MODE_BUILD=npmTest] - 2017-04-08T10:42:40Z - npm-testing /home/travis/build/npmdoc/node-npmdoc-\</tspan>
<tspan x="10" y="122">realm</tspan>
<tspan x="10" y="138"></tspan>
<tspan x="10" y="154"></tspan>
<tspan x="10" y="170">covering $ /home/travis/.nvm/versions/node/v6.10.2/bin/node /home/travis/build/npmdoc/node-npmdo\</tspan>
<tspan x="10" y="186">c-realm/test.js</tspan>
<tspan x="10" y="202">merging file:///home/travis/build/npmdoc/node-npmdoc-realm/tmp/build/test-report.json to test-re\</tspan>
<tspan x="10" y="218">port</tspan>
<tspan x="10" y="234">&gt; server listening on http-port 60193</tspan>
<tspan x="10" y="250">Core version: 2.4.0</tspan>
<tspan x="10" y="266">Sync version: 1.4.2</tspan>
<tspan x="10" y="282">created apidoc file:///home/travis/build/npmdoc/node-npmdoc-realm/tmp/build/apidoc.html</tspan>
<tspan x="10" y="298"></tspan>
<tspan x="10" y="314"></tspan>
<tspan x="10" y="330">browserTest - created electron entry-page /home/travis/build/npmdoc/node-npmdoc-realm/tmp/electr\</tspan>
<tspan x="10" y="346">on.15b4d28a7420.9d305ce00dd65.html</tspan>
<tspan x="10" y="362"></tspan>
<tspan x="10" y="378">[node test-case 1 of 6 passed] - testCase_buildLib_default</tspan>
<tspan x="10" y="394">[node test-case 2 of 6 passed] - testCase_buildReadme_default</tspan>
<tspan x="10" y="410">[node test-case 3 of 6 passed] - testCase_buildTest_default</tspan>
<tspan x="10" y="426"></tspan>
<tspan x="10" y="442">browserTest - created electron entry-page /home/travis/build/npmdoc/node-npmdoc-realm/tmp/electr\</tspan>
<tspan x="10" y="458">on.15b4d28a76b0.e506e5eecbd73.html</tspan>
<tspan x="10" y="474"></tspan>
<tspan x="10" y="490">Xlib:  extension "RANDR" missing on display ":99.0".</tspan>
<tspan x="10" y="506">Xlib:  extension "RANDR" missing on display ":99.0".</tspan>
<tspan x="10" y="522">merging file:///home/travis/build/npmdoc/node-npmdoc-realm/tmp/build/test-report.json to test-re\</tspan>
<tspan x="10" y="538">port</tspan>
<tspan x="10" y="554">merging file:///home/travis/build/npmdoc/node-npmdoc-realm/tmp/build/test-report.json to test-re\</tspan>
<tspan x="10" y="570">port</tspan>
<tspan x="10" y="586">Xlib:  extension "RANDR" missing on display ":99.0".</tspan>
<tspan x="10" y="602">Xlib:  extension "RANDR" missing on display ":99.0".</tspan>
<tspan x="10" y="618">[8938:0408/104242:WARNING:audio_manager.cc(314)] Multiple instances of AudioManager detected</tspan>
<tspan x="10" y="634">[8938:0408/104242:WARNING:audio_manager.cc(275)] Multiple instances of AudioManager detected</tspan>
<tspan x="10" y="650">&gt; [8932:0408/104242:WARNING:audio_manager.cc(314)] Multiple instances of AudioManager detected</tspan>
<tspan x="10" y="666">[8932:0408/104242:WARNING:audio_manager.cc(275)] Multiple instances of AudioManager detected</tspan>
<tspan x="10" y="682">[8977:0408/104242:ERROR:sandbox_linux.cc(343)] InitializeSandbox() called with multiple threads \</tspan>
<tspan x="10" y="698">in process gpu-process. </tspan>
<tspan x="10" y="714">server listening on http-port 34568</tspan>
<tspan x="10" y="730">[8991:0408/104242:ERROR:sandbox_linux.cc(343)] InitializeSandbox() called with multiple threads \</tspan>
<tspan x="10" y="746">in process gpu-process. </tspan>
<tspan x="10" y="762">[8938:0408/104242:ERROR:browser_gpu_channel_host_factory.cc(131)] Failed to create channel.</tspan>
<tspan x="10" y="778"></tspan>
<tspan x="10" y="794">browserTest - opened url /home/travis/build/npmdoc/node-npmdoc-realm/tmp/build/apidoc.html</tspan>
<tspan x="10" y="810"></tspan>
<tspan x="10" y="826"></tspan>
<tspan x="10" y="842">browserTest - opened url http://127.0.0.1:60193?modeTest=1</tspan>
<tspan x="10" y="858"></tspan>
<tspan x="10" y="874">[8938:0408/104244:INFO:CONSOLE(248)] "----------|-----------|-----------|-----------|-----------\</tspan>
<tspan x="10" y="890">|</tspan>
<tspan x="10" y="906">File      |   % Stmts |% Branches |   % Funcs |   % Lines |</tspan>
<tspan x="10" y="922">----------|-----------|-----------|-----------|-----------|</tspan>
<tspan x="10" y="938">----------|-----------|-----------|-----------|-----------|</tspan>
<tspan x="10" y="954">All files |       100 |       100 |       100 |       100 |</tspan>
<tspan x="10" y="970">----------|-----------|-----------|-----------|-----------|</tspan>
<tspan x="10" y="986">", source: file:///home/travis/build/npmdoc/node-npmdoc-realm/tmp/electron.15b4d28a76b0.e506e5ee\</tspan>
<tspan x="10" y="1002">cbd73.html (248)</tspan>
<tspan x="10" y="1018">[8938:0408/104244:INFO:CONSOLE(248)] "created coverage file:///tmp/build/coverage.html/index.htm\</tspan>
<tspan x="10" y="1034">l", source: file:///home/travis/build/npmdoc/node-npmdoc-realm/tmp/electron.15b4d28a76b0.e506e5e\</tspan>
<tspan x="10" y="1050">ecbd73.html (248)</tspan>
<tspan x="10" y="1066">[node test-case 4 of 6 passed] - testCase_buildApp_default</tspan>
<tspan x="10" y="1082"></tspan>
<tspan x="10" y="1098">browserTest - created screenCapture file:///home/travis/build/npmdoc/node-npmdoc-realm/tmp/build\</tspan>
<tspan x="10" y="1114">/screenCapture.npmTest.browser.%2Fhome%2Ftravis%2Fbuild%2Fnpmdoc%2Fnode-npmdoc-realm%2Ftmp%2Fbui\</tspan>
<tspan x="10" y="1130">ld%2Fapidoc.html.png</tspan>
<tspan x="10" y="1146"></tspan>
<tspan x="10" y="1162"></tspan>
<tspan x="10" y="1178">browserTest - created screenCapture file:///home/travis/build/npmdoc/node-npmdoc-realm/tmp/build\</tspan>
<tspan x="10" y="1194">/screenCapture.npmTest.browser.%2F.png</tspan>
<tspan x="10" y="1210"></tspan>
<tspan x="10" y="1226">browserTest - created screenCapture file:///home/travis/build/npmdoc/node-npmdoc-realm/tmp/build\</tspan>
<tspan x="10" y="1242">/screenCapture.npmTest.browser.%2Fhome%2Ftravis%2Fbuild%2Fnpmdoc%2Fnode-npmdoc-realm%2Ftmp%2Fbui\</tspan>
<tspan x="10" y="1258">ld%2Fapidoc.html.html</tspan>
<tspan x="10" y="1274"></tspan>
<tspan x="10" y="1290">browserTest - exit-code 0 - /home/travis/build/npmdoc/node-npmdoc-realm/tmp/build/apidoc.html</tspan>
<tspan x="10" y="1306"></tspan>
<tspan x="10" y="1322">[node test-case 5 of 6 passed] - testCase_buildApidoc_default</tspan>
<tspan x="10" y="1338">browserTest - created screenCapture file:///home/travis/build/npmdoc/node-npmdoc-realm/tmp/build\</tspan>
<tspan x="10" y="1354">/screenCapture.npmTest.browser.%2F.html</tspan>
<tspan x="10" y="1370"></tspan>
<tspan x="10" y="1386">browserTest - exit-code 0 - http://127.0.0.1:60193?modeTest=1</tspan>
<tspan x="10" y="1402"></tspan>
<tspan x="10" y="1418"></tspan>
<tspan x="10" y="1434">browserTest - merged coverage from /home/travis/build/npmdoc/node-npmdoc-realm/tmp/coverage.npmT\</tspan>
<tspan x="10" y="1450">est.browser.%2F.json</tspan>
<tspan x="10" y="1466"></tspan>
<tspan x="10" y="1482"></tspan>
<tspan x="10" y="1498">browserTest - merging test-report from /home/travis/build/npmdoc/node-npmdoc-realm/tmp/test-repo\</tspan>
<tspan x="10" y="1514">rt.npmTest.browser.%2F.json</tspan>
<tspan x="10" y="1530"></tspan>
<tspan x="10" y="1546">[node test-case 6 of 6 passed] - testCase_webpage_default</tspan>
<tspan x="10" y="1562">--------------------------|-----------|-----------|-----------|-----------|</tspan>
<tspan x="10" y="1578">File                      |   % Stmts |% Branches |   % Funcs |   % Lines |</tspan>
<tspan x="10" y="1594">--------------------------|-----------|-----------|-----------|-----------|</tspan>
<tspan x="10" y="1610">   node-npmdoc-realm/     |       100 |       100 |       100 |       100 |</tspan>
<tspan x="10" y="1626">      example.js          |       100 |       100 |       100 |       100 |</tspan>
<tspan x="10" y="1642">      lib.npmdoc_realm.js |       100 |       100 |       100 |       100 |</tspan>
<tspan x="10" y="1658">      test.js             |       100 |       100 |       100 |       100 |</tspan>
<tspan x="10" y="1674">--------------------------|-----------|-----------|-----------|-----------|</tspan>
<tspan x="10" y="1690">All files                 |       100 |       100 |       100 |       100 |</tspan>
<tspan x="10" y="1706">--------------------------|-----------|-----------|-----------|-----------|</tspan>
<tspan x="10" y="1722"></tspan>
<tspan x="10" y="1738">created coverage file:///home/travis/build/npmdoc/node-npmdoc-realm/tmp/build/coverage.html/inde\</tspan>
<tspan x="10" y="1754">x.html</tspan>
<tspan x="10" y="1770">merging file:///home/travis/build/npmdoc/node-npmdoc-realm/tmp/build/test-report.json to test-re\</tspan>
<tspan x="10" y="1786">port</tspan>
<tspan x="10" y="1802"></tspan>
<tspan x="10" y="1818">-------------------------------------------------------</tspan>
<tspan x="10" y="1834">| test-report - npmTest - node - linux v6.10.2 - 2017-04-08T10:42:41.064Z</tspan>
<tspan x="10" y="1850">|   16567 ms            0 failed        6 passed      |</tspan>
<tspan x="10" y="1866">-------------------------------------------------------</tspan>
<tspan x="10" y="1882">| test-report - npmdoc - node - linux v6.10.2 - 2017-04-08T10:42:01.955Z</tspan>
<tspan x="10" y="1898">|   16474 ms            0 failed        1 passed      |</tspan>
<tspan x="10" y="1914">-------------------------------------------------------</tspan>
<tspan x="10" y="1930"></tspan>
<tspan x="10" y="1946">created test-report file:///home/travis/build/npmdoc/node-npmdoc-realm/tmp/build/test-report.htm\</tspan>
<tspan x="10" y="1962">l</tspan>
<tspan x="10" y="1978"></tspan>
<tspan x="10" y="1994"></tspan>
<tspan x="10" y="2010">npmTest - 0 failed tests</tspan>
<tspan x="10" y="2026"></tspan>
<tspan x="10" y="2042"></tspan>
<tspan x="10" y="2058">[MODE_BUILD=npmTest] - 2017-04-08T10:42:59Z - EXIT_CODE - 0</tspan>
</text>
</svg>
